<?xml version="1.0" encoding="UTF-8"?>
<svg version="1.1" xmlns="http://www.w3.org/2000/svg" width="835" height="835">
<path d="M0 0 C1.16606781 -0.00701431 2.33213562 -0.01402863 3.53353882 -0.02125549 C7.27370109 -0.03865268 11.01370501 -0.04510729 14.75390625 -0.046875 C16.67098892 -0.04788712 16.67098892 -0.04788712 18.62680054 -0.04891968 C37.37747467 -0.03317802 55.75558408 0.32231902 74.31640625 3.203125 C75.45529297 3.37473145 76.59417969 3.54633789 77.76757812 3.72314453 C116.92453819 9.7785119 154.22197767 20.98359956 190.31640625 37.203125 C191.10321777 37.54907715 191.8900293 37.8950293 192.70068359 38.25146484 C217.67666328 49.23866839 241.46405827 63.90078795 263.31640625 80.203125 C263.85958496 80.60740723 264.40276367 81.01168945 264.96240234 81.42822266 C276.08427474 89.74737002 286.65789608 98.68964553 296.9296875 108.03515625 C298.52139371 109.48097776 300.12303851 110.91593251 301.734375 112.33984375 C310.41189588 120.0240713 318.86761605 128.07973124 326.375 136.92578125 C327.9287258 138.74836101 329.50470578 140.53987039 331.1015625 142.32421875 C349.53288135 163.04223765 365.66644933 186.06735211 379.31640625 210.203125 C380.08138428 211.54890625 380.08138428 211.54890625 380.86181641 212.921875 C399.5228004 245.9917007 413.43567864 281.27943436 422.31640625 318.203125 C422.58437012 319.31623047 422.85233398 320.42933594 423.12841797 321.57617188 C429.34701579 347.89168661 433.40977504 374.80823962 433.51953125 401.88671875 C433.52654556 403.05278656 433.53355988 404.21885437 433.54078674 405.42025757 C433.55818393 409.16041984 433.56463854 412.90042376 433.56640625 416.640625 C433.56741837 418.55770767 433.56741837 418.55770767 433.56845093 420.51351929 C433.55270927 439.26419342 433.19721223 457.64230283 430.31640625 476.203125 C430.05899658 477.91145508 430.05899658 477.91145508 429.79638672 479.65429688 C423.74101935 518.81125694 412.53593169 556.10869642 396.31640625 592.203125 C395.9704541 592.98993652 395.62450195 593.77674805 395.26806641 594.58740234 C384.28086286 619.56338203 369.6187433 643.35077702 353.31640625 665.203125 C352.91212402 665.74630371 352.5078418 666.28948242 352.09130859 666.84912109 C343.77216123 677.97099349 334.82988572 688.54461483 325.484375 698.81640625 C324.03855349 700.40811246 322.60359874 702.00975726 321.1796875 703.62109375 C313.49545995 712.29861463 305.43980001 720.7543348 296.59375 728.26171875 C294.77117024 729.81544455 292.97966086 731.39142453 291.1953125 732.98828125 C270.4772936 751.4196001 247.45217914 767.55316808 223.31640625 781.203125 C221.970625 781.96810303 221.970625 781.96810303 220.59765625 782.74853516 C187.52783055 801.40951915 152.24009689 815.32239739 115.31640625 824.203125 C114.20330078 824.47108887 113.09019531 824.73905273 111.94335938 825.01513672 C85.62784464 831.23373454 58.71129163 835.29649379 31.6328125 835.40625 C30.46674469 835.41326431 29.30067688 835.42027863 28.09927368 835.42750549 C24.35911141 835.44490268 20.61910749 835.45135729 16.87890625 835.453125 C15.60085114 835.45379974 14.32279602 835.45447449 13.00601196 835.45516968 C-5.74466217 835.43942802 -24.12277158 835.08393098 -42.68359375 832.203125 C-44.39192383 831.94571533 -44.39192383 831.94571533 -46.13476562 831.68310547 C-85.29172569 825.6277381 -122.58916517 814.42265044 -158.68359375 798.203125 C-159.86381104 797.68419678 -159.86381104 797.68419678 -161.06787109 797.15478516 C-186.04385078 786.16758161 -209.83124577 771.50546205 -231.68359375 755.203125 C-232.22677246 754.79884277 -232.76995117 754.39456055 -233.32958984 753.97802734 C-244.45146224 745.65887998 -255.02508358 736.71660447 -265.296875 727.37109375 C-266.88858121 725.92527224 -268.49022601 724.49031749 -270.1015625 723.06640625 C-278.77908338 715.3821787 -287.23480355 707.32651876 -294.7421875 698.48046875 C-296.2959133 696.65788899 -297.87189328 694.86637961 -299.46875 693.08203125 C-317.90006885 672.36401235 -334.03363683 649.33889789 -347.68359375 625.203125 C-348.1935791 624.3059375 -348.70356445 623.40875 -349.22900391 622.484375 C-367.8899879 589.4145493 -381.80286614 554.12681564 -390.68359375 517.203125 C-390.95155762 516.09001953 -391.21952148 514.97691406 -391.49560547 513.83007812 C-397.71420329 487.51456339 -401.77696254 460.59801038 -401.88671875 433.51953125 C-401.89373306 432.35346344 -401.90074738 431.18739563 -401.90797424 429.98599243 C-401.92537143 426.24583016 -401.93182604 422.50582624 -401.93359375 418.765625 C-401.93426849 417.48756989 -401.93494324 416.20951477 -401.93563843 414.89273071 C-401.91989677 396.14205658 -401.56439973 377.76394717 -398.68359375 359.203125 C-398.5119873 358.06423828 -398.34038086 356.92535156 -398.16357422 355.75195312 C-392.10820685 316.59499306 -380.90311919 279.29755358 -364.68359375 243.203125 C-364.3376416 242.41631348 -363.99168945 241.62950195 -363.63525391 240.81884766 C-352.64805036 215.84286797 -337.9859308 192.05547298 -321.68359375 170.203125 C-321.07717041 169.38835693 -321.07717041 169.38835693 -320.45849609 168.55712891 C-312.13934873 157.43525651 -303.19707322 146.86163517 -293.8515625 136.58984375 C-292.40574099 134.99813754 -290.97078624 133.39649274 -289.546875 131.78515625 C-281.86264745 123.10763537 -273.80698751 114.6519152 -264.9609375 107.14453125 C-263.13835774 105.59080545 -261.34684836 104.01482547 -259.5625 102.41796875 C-238.8444811 83.9866499 -215.81936664 67.85308192 -191.68359375 54.203125 C-190.3378125 53.43814697 -190.3378125 53.43814697 -188.96484375 52.65771484 C-155.89501805 33.99673085 -120.60728439 20.08385261 -83.68359375 11.203125 C-82.01393555 10.8011792 -82.01393555 10.8011792 -80.31054688 10.39111328 C-53.99503214 4.17251546 -27.07847913 0.10975621 0 0 Z " fill="#131313" transform="translate(401.68359375,-0.203125)"/>
<path d="M0 0 C0.99628418 0.21430664 1.99256836 0.42861328 3.01904297 0.64941406 C45.46930764 9.92380803 84.65398002 28.00388665 118 56 C118.51594727 56.42716309 119.03189453 56.85432617 119.56347656 57.29443359 C131.25828172 66.99067407 142.32670619 77.19803365 151.74804688 89.16235352 C153.88833141 91.85928837 156.08012339 94.50438123 158.28515625 97.1484375 C177.65803735 120.82552092 191.79356643 148.26611009 202 177 C202.3088916 177.8259668 202.6177832 178.65193359 202.93603516 179.50292969 C203.22140137 180.29344727 203.50676758 181.08396484 203.80078125 181.8984375 C204.05641846 182.59372559 204.31205566 183.28901367 204.57543945 184.00537109 C205.0807978 186.37959634 204.82600972 187.73140656 204 190 C202.19921875 192.3125 202.19921875 192.3125 199.6875 195 C198.98790161 195.74866333 198.98790161 195.74866333 198.27416992 196.51245117 C193.21493727 201.87035475 188.01064537 207.08996366 182.8125 212.3125 C181.96969482 213.16005859 181.12688965 214.00761719 180.25854492 214.88085938 C175.33202728 219.79432984 170.27719548 224.46809981 165 229 C163.39231627 230.45445517 161.78760285 231.91220895 160.1875 233.375 C156.81059018 236.42858867 153.36782868 239.34429205 149.8125 242.1875 C144.42694905 246.54031036 139.39252009 251.21666957 134.35913086 255.96948242 C131.08974831 259.05599192 127.80081767 262.08578837 124.375 265 C118.37276923 270.06514575 118.37276923 270.06514575 115.4375 277.125 C115.83602424 280.03638347 115.83602424 280.03638347 117.4375 282.375 C121.3681158 284.86758563 124.48161803 284.99945776 129 284 C137.4144758 280.11836018 144.36408552 273.54315171 151.28662109 267.49121094 C153.03062996 265.97334172 154.78817385 264.47277966 156.55078125 262.9765625 C162.92906498 257.5577203 169.18089742 252.03548031 175.34375 246.37109375 C178.05923894 243.94712054 180.85033808 241.65486226 183.6875 239.375 C187.7634977 236.08641095 191.48009574 232.63403947 195.125 228.87890625 C196.91237259 227.08780997 198.75828163 225.44831641 200.6875 223.8125 C209.42714352 216.28189807 217.64380573 207.88295157 225 199 C226.00546875 197.7934375 226.00546875 197.7934375 227.03125 196.5625 C229.37445348 193.72425354 231.69048091 190.86571906 234 188 C234.6504126 187.19900879 234.6504126 187.19900879 235.31396484 186.38183594 C251.99566216 165.79591158 273.17308937 138.9282227 271 111 C269.59604748 102.55248905 266.69054156 94.79216896 259.87890625 89.28515625 C243.48201488 78.70391108 223.17758466 75.15486062 204.03515625 76.68359375 C169.89733832 79.15380847 169.89733832 79.15380847 159.375 70.51171875 C153.07093874 64.87656828 147.42527487 58.20458461 143 51 C143 50.34 143 49.68 143 49 C161.81299012 45.10765722 180.35928738 43.58555892 199.5625 43.625 C200.52056549 43.62521149 201.47863098 43.62542297 202.46572876 43.62564087 C217.94826279 43.65962099 232.85786453 44.49532602 248 48 C248.81871582 48.18723633 249.63743164 48.37447266 250.48095703 48.56738281 C264.32764596 51.87550449 277.28261229 57.43090383 288 67 C289.12148437 67.96486328 289.12148437 67.96486328 290.265625 68.94921875 C301.88152987 79.63664143 308.4822982 94.17660633 309.33984375 109.90234375 C309.64333549 119.92711492 308.81969151 129.33401205 306 139 C305.80664062 139.6717627 305.61328125 140.34352539 305.4140625 141.03564453 C297.877819 166.70888146 284.40316446 189.05991893 268 210 C267.31421875 210.88816406 266.6284375 211.77632812 265.921875 212.69140625 C257.86800423 222.96178347 249.32166955 232.93603849 239.96484375 242.0390625 C238.10399042 243.89621632 236.39071681 245.81111814 234.6875 247.8125 C228.00163147 255.58676574 220.58825611 262.79443896 212.78125 269.43359375 C210.99120583 271.00773347 209.34309782 272.6608315 207.6875 274.375 C204.03945811 278.08068589 200.05927518 281.2967635 196.01171875 284.5546875 C192.86018516 287.11352022 189.77246748 289.7369334 186.6875 292.375 C181.09992913 297.13339925 175.3729688 301.68798244 169.58203125 306.1953125 C166.57605823 308.53811885 163.60948153 310.92591055 160.64990234 313.3269043 C126.51786468 340.92369531 88.9699869 364.29227134 51.03076172 386.23828125 C48.05510677 387.96796758 45.09047212 389.71506755 42.12890625 391.46875 C26.9840411 400.4203975 11.58238042 408.8385042 -4 417 C-4.66185303 417.34671753 -5.32370605 417.69343506 -6.00561523 418.05065918 C-43.71714542 437.78625523 -82.0300066 456.13692901 -121.99658203 470.88964844 C-125.02281915 472.00843615 -128.04059276 473.14827075 -131.05859375 474.2890625 C-198.23275928 499.38745627 -298.78734712 524.93228114 -368 494 C-387.19307439 485.04832494 -400.63968776 472.17883355 -408 452 C-408.35449219 451.03578125 -408.70898438 450.0715625 -409.07421875 449.078125 C-416.07392387 425.80484384 -409.71910986 399.24676525 -398.6184082 378.38427734 C-382.78269616 349.61072949 -362.44969264 323.87306086 -339 301 C-337 302 -337 302 -335.96264648 304.52856445 C-335.60243408 305.629021 -335.24222168 306.72947754 -334.87109375 307.86328125 C-334.47599609 309.06017578 -334.08089844 310.25707031 -333.67382812 311.49023438 C-333.26168 312.76431038 -332.84957103 314.03839905 -332.4375 315.3125 C-332.02564453 316.56224609 -331.61378906 317.81199219 -331.18945312 319.09960938 C-330.10874081 322.39480911 -329.03074089 325.68882458 -328 329 C-327.75870361 329.73710205 -327.51740723 330.4742041 -327.26879883 331.23364258 C-327 333 -327 333 -328.703125 335.5234375 C-329.54359375 336.46445312 -330.3840625 337.40546875 -331.25 338.375 C-332.18544115 339.4476104 -333.11896542 340.5218949 -334.05078125 341.59765625 C-334.53885254 342.15598145 -335.02692383 342.71430664 -335.52978516 343.28955078 C-339.88796123 348.35985659 -343.92170253 353.70449199 -348 359 C-348.46051758 359.59151855 -348.92103516 360.18303711 -349.39550781 360.79248047 C-366.05612524 382.28082411 -379.41542053 406.09602417 -377 434 C-375.5245609 441.67758427 -372.06625049 448.00878124 -366 453 C-345.71451667 465.99114905 -318.98350785 466.72739449 -295.64648438 466.07373047 C-293.25877724 466.00720948 -290.87274232 465.9716589 -288.484375 465.94140625 C-260.88296684 465.3129976 -232.74345764 460.58845963 -206 454 C-204.31390625 453.59322021 -204.31390625 453.59322021 -202.59375 453.17822266 C-186.91376137 449.35313534 -171.50672084 444.7233551 -156.1411438 439.80102539 C-154.23398757 439.19016851 -152.32570039 438.58282986 -150.41622925 437.97924805 C-135.79864166 433.8070491 -135.79864166 433.8070491 -123 426 C-121.35292187 422.48804446 -121.35292187 422.48804446 -122 419 C-124.47022471 415.64755218 -126.70594676 414.38407642 -130.83007812 413.69360352 C-139.37056793 413.20008142 -146.96084411 416.29204411 -154.90377808 419.04168701 C-159.36128314 420.57972615 -163.83831012 422.05833918 -168.31640625 423.53515625 C-169.22084976 423.83377563 -170.12529327 424.13239502 -171.05714417 424.44006348 C-190.82131402 430.91343468 -211.061481 435.72599395 -231.375 440.125 C-232.09058075 440.28192322 -232.8061615 440.43884644 -233.54342651 440.6005249 C-235.55555896 441.03837286 -237.56996091 441.46306507 -239.5859375 441.8828125 C-240.7311084 442.12402832 -241.8762793 442.36524414 -243.05615234 442.61376953 C-245.84576585 442.9797646 -247.42242414 443.05461035 -250 442 C-251.79520677 440.22876929 -253.35528037 438.50949149 -254.9375 436.5625 C-255.41203613 435.98757813 -255.88657227 435.41265625 -256.37548828 434.8203125 C-293.35985193 389.36762265 -319.09463439 331.95046313 -319.16796875 272.55859375 C-319.17296135 271.10876854 -319.17296135 271.10876854 -319.17805481 269.62965393 C-319.18308531 267.59514842 -319.18546434 265.56063477 -319.18530273 263.52612305 C-319.18747706 260.46974498 -319.20564136 257.41373576 -319.22460938 254.35742188 C-319.25831628 242.74433177 -318.71233908 231.48690894 -317 220 C-316.86456787 219.03022217 -316.72913574 218.06044434 -316.58959961 217.0612793 C-307.4105726 154.40598664 -272.03101382 93.96951902 -222 55 C-220.7563034 54.00416474 -219.51282817 53.00805297 -218.26953125 52.01171875 C-185.10842629 25.7404045 -147.16839597 9.0065947 -106 0 C-105.05302246 -0.21462891 -104.10604492 -0.42925781 -103.13037109 -0.65039062 C-70.79540461 -7.66158625 -32.24077585 -7.27535282 0 0 Z " fill="#EEEEEE" transform="translate(478,154)"/>
<path d="M0 0 C-2.21682204 25.60395966 -9.74497405 50.51733273 -20 74 C-20.48122314 75.10698242 -20.48122314 75.10698242 -20.97216797 76.23632812 C-32.23374161 101.83653311 -48.07657885 125.03577161 -66.8828125 145.6640625 C-68.79080203 147.76918748 -70.65047069 149.90613634 -72.5 152.0625 C-78.78910719 159.2666505 -85.65696955 165.88080796 -93 172 C-93.75313477 172.63180176 -93.75313477 172.63180176 -94.52148438 173.27636719 C-142.94509457 213.68561681 -203.12968038 235.20112918 -266.125 235.25 C-267.3076947 235.25101212 -267.3076947 235.25101212 -268.51428223 235.25204468 C-282.83835837 235.23271906 -296.84739088 234.33442709 -311 232 C-311.97727051 231.83902832 -312.95454102 231.67805664 -313.96142578 231.51220703 C-335.23251697 227.84550626 -355.58638626 220.85340772 -376 214 C-376 213.34 -376 212.68 -376 212 C-375.3749054 211.77874954 -374.74981079 211.55749908 -374.10577393 211.32954407 C-357.86992964 205.56884552 -341.77470258 199.51026044 -325.75 193.1875 C-324.64036896 192.75046753 -323.53073792 192.31343506 -322.38748169 191.86315918 C-314.92008588 188.92107019 -307.45832068 185.96501147 -300 183 C-298.80235016 182.5247287 -298.80235016 182.5247287 -297.58050537 182.03985596 C-276.98454564 173.86097368 -256.9315903 164.66659924 -237 155 C-236.32590088 154.67326294 -235.65180176 154.34652588 -234.95727539 154.0098877 C-219.50565628 146.50885621 -204.3031666 138.68133112 -189.41796875 130.09765625 C-184.98755665 127.5454658 -180.50844341 125.10164661 -176.00048828 122.68969727 C-161.66293371 115.01044574 -147.83652169 106.53601857 -134 98 C-132.46758506 97.06097407 -130.93505385 96.12213783 -129.40234375 95.18359375 C-106.81927651 81.28546428 -85.08779647 66.06344813 -64 50 C-63.42797852 49.56445801 -62.85595703 49.12891602 -62.26660156 48.68017578 C-58.49697579 45.80486885 -54.7433822 42.90937617 -51 40 C-50.45166504 39.57396484 -49.90333008 39.14792969 -49.33837891 38.70898438 C-41.81036809 32.84976581 -34.37386982 26.88615528 -26.98364258 20.85424805 C-21.93296803 16.7386333 -16.8325402 12.6914263 -11.69140625 8.68945312 C-8.9725204 6.56925139 -6.29445223 4.4157421 -3.6640625 2.1875 C-1 0 -1 0 0 0 Z " fill="#EEEEEE" transform="translate(695,447)"/>
<path d="M0 0 C1.47850298 0.01152165 2.95702064 0.02129778 4.43554688 0.02929688 C15.13159998 0.13159998 15.13159998 0.13159998 16.3125 1.3125 C16.5666555 5.95265325 16.49772798 10.60371306 16.5 15.25 C16.51224609 16.56419922 16.52449219 17.87839844 16.53710938 19.23242188 C16.53904297 20.48474609 16.54097656 21.73707031 16.54296875 23.02734375 C16.54707764 24.18355225 16.55118652 25.33976074 16.55541992 26.53100586 C16.3125 29.3125 16.3125 29.3125 14.3125 31.3125 C12.43652344 31.56787109 12.43652344 31.56787109 10.171875 31.5859375 C8.93630859 31.616875 8.93630859 31.616875 7.67578125 31.6484375 C5.94931538 31.67424416 4.22272048 31.69261281 2.49609375 31.703125 C-3.04073473 31.85812175 -6.30679346 32.60003683 -10.6875 36.3125 C-14.79688181 41.64358992 -15.81040638 45.3528264 -15.81347656 51.96044922 C-15.81728333 53.09618378 -15.82109009 54.23191833 -15.82501221 55.40206909 C-15.82603943 56.62805817 -15.82706665 57.85404724 -15.828125 59.1171875 C-15.84646607 61.7291753 -15.86603756 64.34115469 -15.88671875 66.953125 C-15.91690364 71.05832735 -15.93983581 75.16323068 -15.93798828 79.26855469 C-15.93703758 83.23926264 -15.97608444 87.2091716 -16.015625 91.1796875 C-16.0085553 92.38543427 -16.0014856 93.59118103 -15.99420166 94.83346558 C-16.15586493 106.3289142 -19.07766799 117.43111169 -26.6484375 126.3359375 C-35.90884387 135.3125 -35.90884387 135.3125 -40.6875 135.3125 C-40.6875 135.9725 -40.6875 136.6325 -40.6875 137.3125 C-40.0275 137.498125 -39.3675 137.68375 -38.6875 137.875 C-28.67246889 142.67386907 -22.26840985 151.89557433 -18.44921875 162.015625 C-17.03387948 166.28341727 -16.5567589 169.915768 -16.52978516 174.4387207 C-16.51952301 175.67713211 -16.50926086 176.91554352 -16.49868774 178.19148254 C-16.49524982 178.85059946 -16.4918119 179.50971638 -16.48826981 180.18880653 C-16.47642673 182.26204915 -16.45695983 184.33508848 -16.43515015 186.4082489 C-16.37372013 192.30131194 -16.31956605 198.19435268 -16.28613281 204.08764648 C-16.26510682 207.69750961 -16.2297422 211.30699861 -16.18537521 214.91664696 C-16.17127902 216.28682216 -16.16250728 217.65706351 -16.15932083 219.02730751 C-16.23602967 229.10530389 -16.23602967 229.10530389 -12.6875 238.3125 C-8.85333498 241.95495677 -5.76233067 243.37521385 -0.52734375 243.59375 C0.26607422 243.63113281 1.05949219 243.66851562 1.87695312 243.70703125 C3.54621702 243.77750838 5.2154879 243.84782011 6.88476562 243.91796875 C7.67689453 243.95535156 8.46902344 243.99273437 9.28515625 244.03125 C10.00968994 244.06154297 10.73422363 244.09183594 11.48071289 244.12304688 C13.3125 244.3125 13.3125 244.3125 15.3125 245.3125 C15.3125 255.2125 15.3125 265.1125 15.3125 275.3125 C9.00125 275.374375 9.00125 275.374375 2.5625 275.4375 C1.2621582 275.45570801 -0.03818359 275.47391602 -1.37792969 275.49267578 C-16.31484287 275.56264319 -28.52819622 273.82603672 -39.5 263.0625 C-53.83339201 248.27694272 -53.589694 229.57946544 -53.8984375 210.1328125 C-53.92000916 208.8235656 -53.92000916 208.8235656 -53.9420166 207.48786926 C-53.99908958 203.89364906 -54.05418102 200.29959307 -54.08886719 196.70507812 C-54.23554716 177.08392924 -54.23554716 177.08392924 -63.6875 160.3125 C-69.56171809 155.67357609 -76.31973783 155.54046036 -83.6875 154.3125 C-83.6875 144.4125 -83.6875 134.5125 -83.6875 124.3125 C-77.7475 123.3225 -77.7475 123.3225 -71.6875 122.3125 C-64.91063471 119.11769208 -60.85003724 115.15148678 -57.6875 108.3125 C-53.87870055 96.11243927 -53.68397325 83.29655251 -53.4765625 70.6171875 C-53.46218643 69.76962387 -53.44781036 68.92206024 -53.43299866 68.04881287 C-53.37589344 64.54544773 -53.32100801 61.04223992 -53.28613281 57.53857422 C-53.07998103 38.34868631 -50.7305246 24.23869412 -36.6875 10.3125 C-26.24298731 0.47742568 -13.63554298 -0.27827639 0 0 Z " fill="#121212" transform="translate(367.6875,266.6875)"/>
<path d="M0 0 C41.12269009 -1.07683547 41.12269009 -1.07683547 55.14453125 12 C70.43488588 27.88608273 70.11690168 50.58053141 70.47680664 71.25830078 C70.62894237 79.63760869 70.96715847 87.93487545 71.921875 96.265625 C71.99977768 96.95865723 72.07768036 97.65168945 72.15794373 98.36572266 C73.1894944 106.65223945 75.32775741 113.62965841 82 119 C85.89178664 121.70998755 89.06162486 122.5416049 93.75 123.125 C99.9125964 123.9125964 99.9125964 123.9125964 101 125 C101.08783542 127.21855264 101.10694609 129.43988496 101.09765625 131.66015625 C101.0962413 132.32462265 101.09482635 132.98908905 101.09336853 133.6736908 C101.08775518 135.80333899 101.07520054 137.93288339 101.0625 140.0625 C101.05748671 141.50325369 101.05292351 142.94400903 101.04882812 144.38476562 C101.03778145 147.92321102 101.02050792 151.46159539 101 155 C99.9013562 155.07347656 99.9013562 155.07347656 98.78051758 155.1484375 C90.69090216 155.77004577 84.0241584 156.84849482 78.1484375 162.91015625 C71.49536071 171.93933189 70.56121162 182.96150355 70.59375 193.8359375 C70.57749573 195.45866074 70.57749573 195.45866074 70.56091309 197.11416626 C70.52700164 200.53450592 70.51113691 203.95451532 70.5 207.375 C70.38088219 243.84576573 70.38088219 243.84576573 60 259 C59.5875 259.61617187 59.175 260.23234375 58.75 260.8671875 C53.1494517 268.37347792 44.85554316 271.96205215 36 274 C34.89978516 274.26018921 34.89978516 274.26018921 33.77734375 274.52563477 C30.54379176 275.07791953 27.48378001 275.12968296 24.203125 275.1328125 C22.91535156 275.13410156 21.62757813 275.13539063 20.30078125 275.13671875 C19.30425537 275.13357666 19.30425537 275.13357666 18.28759766 275.13037109 C16.24243885 275.12498007 14.19749611 275.13035061 12.15234375 275.13671875 C10.22841797 275.13478516 10.22841797 275.13478516 8.265625 275.1328125 C7.08774414 275.13168457 5.90986328 275.13055664 4.69628906 275.12939453 C2 275 2 275 1 274 C0.89996711 271.86646826 0.86918952 269.72962458 0.8671875 267.59375 C0.86589844 266.29308594 0.86460937 264.99242187 0.86328125 263.65234375 C0.86537598 262.97155762 0.8674707 262.29077148 0.86962891 261.58935547 C0.8749776 259.50871485 0.8696832 257.42829011 0.86328125 255.34765625 C0.86457031 254.04699219 0.86585938 252.74632812 0.8671875 251.40625 C0.86831543 250.20291016 0.86944336 248.99957031 0.87060547 247.75976562 C1 245 1 245 2 244 C3.89162622 243.90499645 5.78378998 243.81597589 7.67700195 243.76098633 C18.42848825 243.50103098 18.42848825 243.50103098 28 239 C34.09603938 231.98955471 33.10739517 223.82962348 32.9921875 215.05859375 C32.97465939 212.67643664 32.95775226 210.29427489 32.94140625 207.91210938 C32.91057752 204.18207778 32.87518457 200.45228215 32.82861328 196.72241211 C32.78586948 193.10527767 32.7627148 189.48841389 32.7421875 185.87109375 C32.72356659 184.7758287 32.70494568 183.68056366 32.6857605 182.55210876 C32.63562714 167.15671014 36.59601747 154.30018688 47.03515625 142.91015625 C52.08588957 138 52.08588957 138 55 138 C54.01 137.01 54.01 137.01 53 136 C52.31744141 135.30583984 52.31744141 135.30583984 51.62109375 134.59765625 C50.47676318 133.46987022 49.29836157 132.37616131 48.09765625 131.30859375 C39.4130076 123.32405113 34.58287318 112.9243517 33.81466675 101.16236877 C33.74046959 97.95600083 33.72369679 94.75409194 33.7265625 91.546875 C33.70627034 89.12890165 33.6854195 86.71093293 33.6640625 84.29296875 C33.64152347 80.52356021 33.62500675 76.75433601 33.61914062 72.98486328 C33.60954199 69.31770413 33.57567785 65.65135075 33.5390625 61.984375 C33.54410797 60.87664734 33.54915344 59.76891968 33.55435181 58.62762451 C33.45670967 50.74226207 32.35517964 43.21333645 29 36 C25.43575966 32.70297594 22.12323913 31.89535235 17.3671875 31.71875 C16.47902344 31.68136719 15.59085937 31.64398438 14.67578125 31.60546875 C12.80079229 31.53486247 10.92579215 31.4645524 9.05078125 31.39453125 C8.16519531 31.35714844 7.27960938 31.31976563 6.3671875 31.28125 C5.55362793 31.25095703 4.74006836 31.22066406 3.90185547 31.18945312 C2 31 2 31 1 30 C0.84126045 27.78312006 0.74866163 25.56144702 0.68359375 23.33984375 C0.66281265 22.67537735 0.64203156 22.01091095 0.62062073 21.3263092 C0.55506342 19.19681457 0.49621215 17.06719332 0.4375 14.9375 C0.39432061 13.49673153 0.35070651 12.05597601 0.30664062 10.61523438 C0.19937607 7.0769596 0.09812629 3.53854131 0 0 Z " fill="#121212" transform="translate(468,267)"/>
<path d="M0 0 C0.33 0 0.66 0 1 0 C2.13427447 6.12564786 2.18384985 12.03744895 2.1875 18.25 C2.19974609 19.33152344 2.21199219 20.41304688 2.22460938 21.52734375 C2.23646826 28.08135447 2.13689882 34.73176346 0 41 C-0.99 41.495 -0.99 41.495 -2 42 C-1.89171875 41.17435547 -1.89171875 41.17435547 -1.78125 40.33203125 C-0.9411272 32.80593121 -0.93111661 25.35133298 -1.03710938 17.7902832 C-1.09551595 11.7940623 -0.71534296 5.9534737 0 0 Z " fill="#1E1E1E" transform="translate(536,469)"/>
<path d="M0 0 C0.66 0 1.32 0 2 0 C2 9.57 2 19.14 2 29 C-0.31 29 -2.62 29 -5 29 C-5 28.34 -5 27.68 -5 27 C-3.68 27 -2.36 27 -1 27 C-1.00523682 26.21761963 -1.01047363 25.43523926 -1.01586914 24.62915039 C-1.03657106 21.10694167 -1.04963838 17.5847457 -1.0625 14.0625 C-1.07087891 12.83080078 -1.07925781 11.59910156 -1.08789062 10.33007812 C-1.09111328 9.16025391 -1.09433594 7.99042969 -1.09765625 6.78515625 C-1.10289307 5.70113525 -1.10812988 4.61711426 -1.11352539 3.50024414 C-1 1 -1 1 0 0 Z " fill="#1C1C1C" transform="translate(567,392)"/>
<path d="M0 0 C1.28132813 0.00902344 2.56265625 0.01804687 3.8828125 0.02734375 C5.36394531 0.04474609 5.36394531 0.04474609 6.875 0.0625 C6.545 1.0525 6.215 2.0425 5.875 3.0625 C-4.97702025 3.72812227 -15.81392341 4.1809669 -26.6875 4.25 C-27.68015869 4.26289062 -28.67281738 4.27578125 -29.69555664 4.2890625 C-30.62231201 4.29035156 -31.54906738 4.29164063 -32.50390625 4.29296875 C-33.73475952 4.29913208 -33.73475952 4.29913208 -34.99047852 4.30541992 C-37.125 4.0625 -37.125 4.0625 -40.125 2.0625 C-39.1963916 2.03744385 -38.2677832 2.0123877 -37.31103516 1.98657227 C-33.87064196 1.89152068 -30.43042287 1.79228293 -26.99023438 1.69018555 C-25.50037359 1.64683411 -24.01046305 1.60515916 -22.52050781 1.56518555 C-20.38070673 1.50748785 -18.24115615 1.44379245 -16.1015625 1.37890625 C-14.81330566 1.34224854 -13.52504883 1.30559082 -12.19775391 1.26782227 C-7.92976505 0.98263407 -4.4752254 -0.04068387 0 0 Z " fill="#1E1E1E" transform="translate(199.125,616.9375)"/>
<path d="M0 0 C-0.98950195 1.48168945 -0.98950195 1.48168945 -3 3 C-5.79989129 3.26159322 -8.37227929 3.34904338 -11.16796875 3.29296875 C-11.96278152 3.28872391 -12.7575943 3.28447906 -13.57649231 3.28010559 C-16.11384021 3.2633193 -18.65039238 3.22566824 -21.1875 3.1875 C-22.90819165 3.17245305 -24.62889576 3.15876466 -26.34960938 3.14648438 C-30.56671262 3.11341607 -34.78322142 3.06163495 -39 3 C-39 2.67 -39 2.34 -39 2 C-25.98257939 0.78381162 -13.08304907 -0.37739565 0 0 Z " fill="#E0E0E0" transform="translate(449,679)"/>
<path d="M0 0 C0.33 9.9 0.66 19.8 1 30 C-2 28 -2 28 -3 25 C-3.08239169 23.15389468 -3.10743359 21.30494836 -3.09765625 19.45703125 C-3.09443359 18.38388672 -3.09121094 17.31074219 -3.08789062 16.20507812 C-3.07951172 15.08552734 -3.07113281 13.96597656 -3.0625 12.8125 C-3.05798828 11.68134766 -3.05347656 10.55019531 -3.04882812 9.38476562 C-3.03703498 6.58979073 -3.0205765 3.7949218 -3 1 C-1 0 -1 0 0 0 Z " fill="#DEDEDE" transform="translate(469,513)"/>
<path d="M0 0 C12.79273087 -0.30179444 25.28660534 0.59218483 38 2 C38 2.33 38 2.66 38 3 C27.77 3 17.54 3 7 3 C7 2.67 7 2.34 7 2 C4.69 1.67 2.38 1.34 0 1 C0 0.67 0 0.34 0 0 Z " fill="#E7E7E7" transform="translate(161,656)"/>
<path d="M0 0 C1.26653882 2.53307765 0.70052397 4.07983194 0.26220703 6.79345703 C-0.27555754 11.31889108 -0.10098724 15.88712394 -0.0625 20.4375 C-0.05798828 21.45521484 -0.05347656 22.47292969 -0.04882812 23.52148438 C-0.03712437 26.01438509 -0.02072848 28.50716074 0 31 C-0.33 31 -0.66 31 -1 31 C-1.33 29.02 -1.66 27.04 -2 25 C-2.33 25 -2.66 25 -3 25 C-3.0544207 22.31222198 -3.09387266 19.62556788 -3.125 16.9375 C-3.14175781 16.18533203 -3.15851562 15.43316406 -3.17578125 14.65820312 C-3.21863716 9.70834604 -2.6432698 5.68027585 -1 1 C-0.67 0.67 -0.34 0.34 0 0 Z " fill="#DFDFDF" transform="translate(541,441)"/>
<path d="M0 0 C3.40339263 3.40339263 3.06953956 7.32735096 3.125 11.9375 C3.09108038 15.71953769 2.78158436 19.28747431 2 23 C1.01 23 0.02 23 -1 23 C-0.67 15.41 -0.34 7.82 0 0 Z " fill="#1A1A1A" transform="translate(747,258)"/>
<path d="M0 0 C4.41741893 0.08082823 8.83345254 0.19367918 13.25 0.3125 C14.50425781 0.33505859 15.75851563 0.35761719 17.05078125 0.38085938 C18.25605469 0.41630859 19.46132812 0.45175781 20.703125 0.48828125 C21.81333008 0.51446533 22.92353516 0.54064941 24.06738281 0.56762695 C27.2500863 1.0368717 28.65373477 1.85591294 31 4 C28.35409986 4.02684679 25.70846904 4.04676357 23.0625 4.0625 C21.93038086 4.07506836 21.93038086 4.07506836 20.77539062 4.08789062 C18.85005687 4.09652441 16.92464419 4.05224333 15 4 C14.67 3.67 14.34 3.34 14 3 C11.65276034 2.602507 9.29671452 2.25631277 6.9375 1.9375 C5.64714844 1.76089844 4.35679687 1.58429687 3.02734375 1.40234375 C1.52880859 1.20318359 1.52880859 1.20318359 0 1 C0 0.67 0 0.34 0 0 Z " fill="#1A1B1B" transform="translate(141,657)"/>
<path d="M0 0 C0.33 0 0.66 0 1 0 C1 6.6 1 13.2 1 20 C0.01 19.67 -0.98 19.34 -2 19 C-2.05380578 16.20807795 -2.09357669 13.4171859 -2.125 10.625 C-2.14175781 9.8309375 -2.15851562 9.036875 -2.17578125 8.21875 C-2.19335473 6.14507985 -2.10335168 4.07116759 -2 2 C-1.34 1.34 -0.68 0.68 0 0 Z " fill="#E4E4E4" transform="translate(786,259)"/>
<path d="M0 0 C6.27 0 12.54 0 19 0 C19.33 0.99 19.66 1.98 20 3 C13.73 3 7.46 3 1 3 C0.67 2.01 0.34 1.02 0 0 Z " fill="#E3E3E3" transform="translate(471,298)"/>
<path d="M0 0 C2.60444348 -0.05394705 5.20776998 -0.09364469 7.8125 -0.125 C8.55048828 -0.14175781 9.28847656 -0.15851563 10.04882812 -0.17578125 C13.91246426 -0.21074628 15.70903668 -0.19397555 19 2 C18.67 2.66 18.34 3.32 18 4 C12.06 3.67 6.12 3.34 0 3 C0 2.01 0 1.02 0 0 Z " fill="#E6E6E6" transform="translate(363,508)"/>
<path d="M0 0 C6.93 0 13.86 0 21 0 C21 0.33 21 0.66 21 1 C12.32910197 3.33447255 3.89543642 3.19865739 -5 3 C-5 2.67 -5 2.34 -5 2 C-3.35 1.67 -1.7 1.34 0 1 C0 0.67 0 0.34 0 0 Z " fill="#E1E1E1" transform="translate(185,620)"/>
<path d="M0 0 C0 0.99 0 1.98 0 3 C0.66 3 1.32 3 2 3 C2.33 3.99 2.66 4.98 3 6 C1.56206608 5.68950274 0.1246682 5.3765224 -1.3125 5.0625 C-2.11300781 4.88847656 -2.91351563 4.71445312 -3.73828125 4.53515625 C-6 4 -6 4 -9 3 C-9 2.34 -9 1.68 -9 1 C-3.375 -1.125 -3.375 -1.125 0 0 Z " fill="#E7E7E7" transform="translate(328,658)"/>
<path d="M0 0 C1.28583984 0.00966797 1.28583984 0.00966797 2.59765625 0.01953125 C4.9375 0.1875 4.9375 0.1875 7.9375 1.1875 C7.9375 1.8475 7.9375 2.5075 7.9375 3.1875 C6.04174749 3.21471176 4.14588021 3.23399136 2.25 3.25 C0.66638672 3.26740234 0.66638672 3.26740234 -0.94921875 3.28515625 C-3.78660262 3.19615425 -6.3063919 2.83689838 -9.0625 2.1875 C-5.91659472 0.3408317 -3.63099948 -0.06024283 0 0 Z " fill="#1C1C1D" transform="translate(344.0625,566.8125)"/>
<path d="M0 0 C0 4.24645065 -1.81750806 6.38524772 -4 10 C-4.66 10 -5.32 10 -6 10 C-6.309375 10.94875 -6.61875 11.8975 -6.9375 12.875 C-8 16 -8 16 -9 18 C-9.66 17.67 -10.32 17.34 -11 17 C-9.56407335 12.88016856 -7.53749031 9.74182002 -4.9375 6.25 C-4.22464844 5.28578125 -3.51179688 4.3215625 -2.77734375 3.328125 C-1 1 -1 1 0 0 Z " fill="#0B0B0B" transform="translate(128,515)"/>
<path d="M0 0 C0 3 0 3 -1.5625 5.5625 C-2.036875 6.366875 -2.51125 7.17125 -3 8 C-2.67 8.66 -2.34 9.32 -2 10 C-4.31 11.98 -6.62 13.96 -9 16 C-9.66 15.67 -10.32 15.34 -11 15 C-7.37 10.05 -3.74 5.1 0 0 Z " fill="#0B0B0A" transform="translate(760,344)"/>
<path d="M0 0 C2.64 0 5.28 0 8 0 C8 0.66 8 1.32 8 2 C12.455 1.505 12.455 1.505 17 1 C17 1.99 17 2.98 17 4 C14.72844502 3.91297874 12.45769257 3.80480478 10.1875 3.6875 C8.92292969 3.62949219 7.65835938 3.57148438 6.35546875 3.51171875 C3 3 3 3 1.05078125 1.45703125 C0.70402344 0.97621094 0.35726562 0.49539062 0 0 Z " fill="#1C1C1C" transform="translate(697,196)"/>
<path d="M0 0 C-0.33 0.99 -0.66 1.98 -1 3 C-2.74965358 3.05429959 -4.49979787 3.09292823 -6.25 3.125 C-7.22453125 3.14820313 -8.1990625 3.17140625 -9.203125 3.1953125 C-12.0196498 2.99862781 -13.60949036 2.44568916 -16 1 C-10.62915894 0.31798844 -5.41499441 -0.11521265 0 0 Z " fill="#222222" transform="translate(241,655)"/>
<path d="M0 0 C4.29 0 8.58 0 13 0 C13.33 0.99 13.66 1.98 14 3 C9.71 3 5.42 3 1 3 C0.67 2.01 0.34 1.02 0 0 Z " fill="#E6E6E6" transform="translate(687,198)"/>
<path d="M0 0 C0.66 0.33 1.32 0.66 2 1 C-2.79077028 5.9255107 -7.77674023 10.53648711 -13 15 C-13 12 -13 12 -11.6796875 10.3515625 C-11.08414063 9.78179687 -10.48859375 9.21203125 -9.875 8.625 C-8.92560547 7.71427734 -8.92560547 7.71427734 -7.95703125 6.78515625 C-5.37309431 4.4281519 -2.72453348 2.1929172 0 0 Z " fill="#090909" transform="translate(621,401)"/>
<path d="M0 0 C0.33 0.99 0.66 1.98 1 3 C-0.40333195 5.35255857 -1.82161123 7.49093839 -3.4375 9.6875 C-3.87126953 10.29400391 -4.30503906 10.90050781 -4.75195312 11.52539062 C-5.82544245 13.02355704 -6.91155165 14.5126661 -8 16 C-9 13 -9 13 -7.8125 10.0625 C-6.10552782 7.17830562 -4.42762317 5.27100232 -2 3 C-1.34 2.01 -0.68 1.02 0 0 Z " fill="#E8E8E8" transform="translate(761,339)"/>
<path d="M0 0 C1 4 1 4 1 4 Z M-1 4 C-0.67 4 -0.34 4 0 4 C0 7.63 0 11.26 0 15 C-0.99 15 -1.98 15 -3 15 C-3.05399736 13.54207116 -3.09279177 12.08357288 -3.125 10.625 C-3.15980469 9.40683594 -3.15980469 9.40683594 -3.1953125 8.1640625 C-3 6 -3 6 -1 4 Z " fill="#181718" transform="translate(504,434)"/>
<path d="M0 0 C0.43183594 0.57621094 0.86367188 1.15242188 1.30859375 1.74609375 C2.38242914 3.17704761 3.45777404 4.60687092 4.53515625 6.03515625 C5.03917969 6.70417969 5.54320312 7.37320312 6.0625 8.0625 C6.56910156 8.73410156 7.07570313 9.40570313 7.59765625 10.09765625 C8.77792898 11.69875045 9.896642 13.344963 11 15 C10.01 15 9.02 15 8 15 C6.24609375 13.20703125 6.24609375 13.20703125 4.4375 10.8125 C3.83808594 10.03519531 3.23867188 9.25789063 2.62109375 8.45703125 C1.0215853 6.03271604 -0.02599789 3.72817507 -1 1 C-0.67 0.67 -0.34 0.34 0 0 Z " fill="#E4E5E5" transform="translate(505,383)"/>
<path d="M0 0 C1.83008048 4.88021461 0.600262 10.19921401 -1 15 C-1.99 15 -2.98 15 -4 15 C-3.52229477 13.06213915 -3.04278429 11.12472326 -2.5625 9.1875 C-2.29566406 8.10855469 -2.02882813 7.02960937 -1.75390625 5.91796875 C-1.23922588 3.9259157 -0.65062825 1.95188476 0 0 Z " fill="#E6E6E6" transform="translate(73,546)"/>
<path d="M0 0 C2.39073445 3.82517513 2.55966552 7.59665524 3 12 C2.34 12 1.68 12 1 12 C-1.12046792 8.46588679 -1.53199289 5.05606165 -2 1 C-1.34 0.67 -0.68 0.34 0 0 Z " fill="#1C1B1C" transform="translate(164,471)"/>
<path d="M0 0 C1.37677187 3.82436632 0.72799754 7.06881331 0 11 C-0.33 11.66 -0.66 12.32 -1 13 C-1.66 13 -2.32 13 -3 13 C-2.52060632 8.28596212 -2.03165952 4.33420699 0 0 Z " fill="#E4E4E4" transform="translate(168,343)"/>
<path d="M0 0 C1.93395001 3.86790003 2.23289353 5.1500459 2.125 9.25 C2.10695313 10.14203125 2.08890625 11.0340625 2.0703125 11.953125 C2.04710938 12.62859375 2.02390625 13.3040625 2 14 C1.01 13.34 0.02 12.68 -1 12 C-0.67 8.04 -0.34 4.08 0 0 Z " fill="#E4E3E3" transform="translate(68,563)"/>
<path d="M0 0 C0.79921875 0.01804688 1.5984375 0.03609375 2.421875 0.0546875 C3.02515625 0.07789063 3.6284375 0.10109375 4.25 0.125 C3.92 1.115 3.59 2.105 3.25 3.125 C-0.71 2.795 -4.67 2.465 -8.75 2.125 C-5.00631258 0.25315629 -3.9099209 -0.11499767 0 0 Z " fill="#DFDFDF" transform="translate(701.75,227.875)"/>
<path d="M0 0 C0 0.99 0 1.98 0 3 C-6.625 4 -6.625 4 -10 4 C-10 3.34 -10 2.68 -10 2 C-3.375 0 -3.375 0 0 0 Z " fill="#1B1B1B" transform="translate(294,582)"/>
<path d="M0 0 C4.455 0.99 4.455 0.99 9 2 C8.67 2.99 8.34 3.98 8 5 C3.545 4.01 3.545 4.01 -1 3 C-0.67 2.01 -0.34 1.02 0 0 Z " fill="#1F1F1F" transform="translate(499,157)"/>
<path d="M0 0 C0.33 0 0.66 0 1 0 C0.67 3.3 0.34 6.6 0 10 C-0.99 10.33 -1.98 10.66 -3 11 C-2.67 8.03 -2.34 5.06 -2 2 C-1.34 2 -0.68 2 0 2 C0 1.34 0 0.68 0 0 Z " fill="#E6E5E6" transform="translate(502,430)"/>
<path d="M0 0 C0 0.99 0 1.98 0 3 C-2.25 4.5 -2.25 4.5 -5 6 C-6.34631825 6.98244845 -7.68441297 7.97676564 -9 9 C-9.66 8.67 -10.32 8.34 -11 8 C-9.54712339 6.66072279 -8.08752741 5.32873153 -6.625 4 C-5.81289063 3.2575 -5.00078125 2.515 -4.1640625 1.75 C-2 0 -2 0 0 0 Z " fill="#E8E8E8" transform="translate(658,398)"/>
<path d="M0 0 C4.455 1.98 4.455 1.98 9 4 C7.02 4.99 7.02 4.99 5 6 C1.75 4.625 1.75 4.625 -1 3 C-0.67 2.01 -0.34 1.02 0 0 Z " fill="#E6E6E6" transform="translate(543,176)"/>
<path d="M0 0 C0.1875 2.375 0.1875 2.375 0 5 C-0.99 5.66 -1.98 6.32 -3 7 C-3 6.34 -3 5.68 -3 5 C-3.66 5 -4.32 5 -5 5 C-5.33 5.66 -5.66 6.32 -6 7 C-6 6.01 -6 5.02 -6 4 C-1.54285714 0 -1.54285714 0 0 0 Z " fill="#E7E7E7" transform="translate(695,447)"/>
<path d="M0 0 C1.85776765 3.13498292 2.20140476 5.37471432 2 9 C1.01 9.33 0.02 9.66 -1 10 C-1.125 3.375 -1.125 3.375 0 0 Z " fill="#1B1B1B" transform="translate(158,433)"/>
<path d="M0 0 C0.99 0 1.98 0 3 0 C3.33 3.3 3.66 6.6 4 10 C0.48283697 6.48283697 0.45323837 4.80432667 0 0 Z " fill="#E7E7E8" transform="translate(748,258)"/>
<path d="M0 0 C2 4 2 4 1.125 7.25 C0.75375 8.1575 0.3825 9.065 0 10 C-0.66 10 -1.32 10 -2 10 C-1.34 6.7 -0.68 3.4 0 0 Z " fill="#1C1C1C" transform="translate(688,481)"/>
<path d="M0 0 C-0.33 0.99 -0.66 1.98 -1 3 C-3.375 3.625 -3.375 3.625 -6 4 C-6.66 3.34 -7.32 2.68 -8 2 C-5.09399739 0.74335022 -3.20395416 0 0 0 Z M-8 4 C-6 5 -6 5 -6 5 Z " fill="#E6E6E7" transform="translate(354,647)"/>
<path d="M0 0 C0.33 0 0.66 0 1 0 C1.66 3.63 2.32 7.26 3 11 C2.34 11 1.68 11 1 11 C1 10.01 1 9.02 1 8 C0.34 8 -0.32 8 -1 8 C-0.67 5.36 -0.34 2.72 0 0 Z " fill="#E2E2E2" transform="translate(502,371)"/>
<path d="M0 0 C2.97 0.33 5.94 0.66 9 1 C9 1.33 9 1.66 9 2 C4.545 2.495 4.545 2.495 0 3 C0 2.01 0 1.02 0 0 Z " fill="#E2E1E2" transform="translate(268,647)"/>
<path d="M0 0 C0.99 0.33 1.98 0.66 3 1 C2.67 1.66 2.34 2.32 2 3 C-0.3140622 3.73075648 -2.64828869 4.40138258 -5 5 C-5.33 4.01 -5.66 3.02 -6 2 C-4.02 2 -2.04 2 0 2 C0 1.34 0 0.68 0 0 Z " fill="#E7E7E7" transform="translate(325,569)"/>
<path d="M0 0 C0.66 0.99 1.32 1.98 2 3 C0.35 4.65 -1.3 6.3 -3 8 C-3.66 7.67 -4.32 7.34 -5 7 C-4.360625 6.21625 -3.72125 5.4325 -3.0625 4.625 C-1.01857687 2.20460719 -1.01857687 2.20460719 0 0 Z " fill="#E6E6E6" transform="translate(530,521)"/>
<path d="M0 0 C0.33 0 0.66 0 1 0 C1.05399736 1.45792884 1.09279177 2.91642712 1.125 4.375 C1.14820313 5.18710937 1.17140625 5.99921875 1.1953125 6.8359375 C1 9 1 9 -1 11 C-2.26264601 6.70700357 -1.62950412 4.12168689 0 0 Z " fill="#E3E3E3" transform="translate(172,328)"/>
<path d="M0 0 C2.875 -0.125 2.875 -0.125 6 0 C6.66 0.66 7.32 1.32 8 2 C7 3 7 3 3.4375 3.0625 C2.303125 3.041875 1.16875 3.02125 0 3 C0 2.01 0 1.02 0 0 Z " fill="#1D1D1D" transform="translate(351,267)"/>
<path d="M0 0 C0 0.66 0 1.32 0 2 C-2.8125 2.625 -2.8125 2.625 -6 3 C-6.99 2.34 -7.98 1.68 -9 1 C-2.25 -1.125 -2.25 -1.125 0 0 Z " fill="#1D1D1D" transform="translate(509,671)"/>
<path d="M0 0 C-0.99 0.33 -1.98 0.66 -3 1 C-3 1.66 -3 2.32 -3 3 C-5.31 2.67 -7.62 2.34 -10 2 C-3.24137931 -1.62068966 -3.24137931 -1.62068966 0 0 Z " fill="#212021" transform="translate(295,645)"/>
<path d="M0 0 C0.66 0.33 1.32 0.66 2 1 C0.02 3.31 -1.96 5.62 -4 8 C-4.33 7.01 -4.66 6.02 -5 5 C-3.35 3.35 -1.7 1.7 0 0 Z " fill="#090809" transform="translate(633,587)"/>
<path d="M0 0 C0.82638376 2.89234315 1 4.88742431 1 8 C0.01 8 -0.98 8 -2 8 C-1.125 1.125 -1.125 1.125 0 0 Z " fill="#1B1C1C" transform="translate(103,559)"/>
<path d="M0 0 C0.33 0 0.66 0 1 0 C1.08159574 4.16138263 0.98248524 7.9472484 0 12 C-0.33 12 -0.66 12 -1 12 C-1.33 9.36 -1.66 6.72 -2 4 C-1.34 4 -0.68 4 0 4 C0 2.68 0 1.36 0 0 Z " fill="#19191A" transform="translate(504,365)"/>
<path d="M0 0 C0.99 0.66 1.98 1.32 3 2 C2.01 3.98 1.02 5.96 0 8 C-0.66 7.34 -1.32 6.68 -2 6 C-1.34 4.02 -0.68 2.04 0 0 Z " fill="#E6E7E7" transform="translate(769,322)"/>
</svg>
